<svg width="24" height="24" viewBox="0 0 33 33" fill="none" xmlns="http://www.w3.org/2000/svg">
<path d="M24.4131 19.25C25.4856 19.25 26.4289 19.7959 26.9844 20.625H18.5625C17.6508 20.625 16.7765 20.9872 16.1318 21.6318C15.4872 22.2765 15.125 23.1508 15.125 24.0625V29.5625C15.125 29.7839 15.1456 30.0025 15.1869 30.2115C11.1457 29.9558 8.12487 28.4928 6.20812 25.8019C5.7513 25.1613 5.50569 24.3942 5.50549 23.6074V22.3424C5.50549 21.5222 5.8313 20.7357 6.41123 20.1557C6.99116 19.5758 7.77772 19.25 8.59787 19.25H24.4131ZM16.5 2.75688C17.4028 2.75688 18.2968 2.93471 19.1309 3.28021C19.9651 3.62571 20.7229 4.13212 21.3614 4.77052C21.9998 5.40892 22.5062 6.16682 22.8517 7.00093C23.1972 7.83505 23.375 8.72904 23.375 9.63188C23.375 10.5347 23.1972 11.4287 22.8517 12.2628C22.5062 13.0969 21.9998 13.8548 21.3614 14.4932C20.7229 15.1316 19.9651 15.6381 19.1309 15.9836C18.2968 16.3291 17.4028 16.5069 16.5 16.5069C14.6766 16.5069 12.9279 15.7826 11.6386 14.4932C10.3493 13.2039 9.62499 11.4552 9.62499 9.63188C9.62499 7.80852 10.3493 6.05983 11.6386 4.77052C12.9279 3.48121 14.6766 2.75688 16.5 2.75688ZM16.5 24.0625C16.5 23.5155 16.7173 22.9909 17.1041 22.6041C17.4909 22.2173 18.0155 22 18.5625 22H29.5625C30.1095 22 30.6341 22.2173 31.0209 22.6041C31.4077 22.9909 31.625 23.5155 31.625 24.0625V29.5625C31.625 30.1095 31.4077 30.6341 31.0209 31.0209C30.6341 31.4077 30.1095 31.625 29.5625 31.625H18.5625C18.0155 31.625 17.4909 31.4077 17.1041 31.0209C16.7173 30.6341 16.5 30.1095 16.5 29.5625V24.0625ZM30.25 24.75C29.8853 24.75 29.5356 24.6051 29.2777 24.3473C29.0199 24.0894 28.875 23.7397 28.875 23.375H27.5C27.5 24.1043 27.7897 24.8038 28.3054 25.3195C28.8212 25.8353 29.5206 26.125 30.25 26.125V24.75ZM30.25 27.5C29.5206 27.5 28.8212 27.7897 28.3054 28.3055C27.7897 28.8212 27.5 29.5207 27.5 30.25H28.875C28.875 29.8853 29.0199 29.5356 29.2777 29.2777C29.5356 29.0199 29.8853 28.875 30.25 28.875V27.5ZM19.25 23.375C19.25 23.7397 19.1051 24.0894 18.8473 24.3473C18.5894 24.6051 18.2397 24.75 17.875 24.75V26.125C18.6043 26.125 19.3038 25.8353 19.8195 25.3195C20.3353 24.8038 20.625 24.1043 20.625 23.375H19.25ZM20.625 30.25C20.625 29.5207 20.3353 28.8212 19.8195 28.3055C19.3038 27.7897 18.6043 27.5 17.875 27.5V28.875C18.2397 28.875 18.5894 29.0199 18.8473 29.2777C19.1051 29.5356 19.25 29.8853 19.25 30.25H20.625ZM26.4687 26.8125C26.4687 26.1743 26.2152 25.5623 25.764 25.111C25.3127 24.6598 24.7007 24.4063 24.0625 24.4063C23.4243 24.4063 22.8123 24.6598 22.361 25.111C21.9098 25.5623 21.6562 26.1743 21.6562 26.8125C21.6562 27.4507 21.9098 28.0627 22.361 28.514C22.8123 28.9652 23.4243 29.2188 24.0625 29.2188C24.7007 29.2188 25.3127 28.9652 25.764 28.514C26.2152 28.0627 26.4687 27.4507 26.4687 26.8125Z" fill="black"/>
</svg>
